<svg width="64" height="64" viewBox="0 0 64 64" fill="none" xmlns="http://www.w3.org/2000/svg">
  <!-- bok-choy -->
  <path d="M32 56V36" stroke="#2C2418" stroke-width="1.5" stroke-linecap="round" stroke-linejoin="round"/>
  <path d="M32 36c-2-8-10-16-18-18 4 6 12 14 18 18" stroke="#2C2418" stroke-width="1.5" stroke-linecap="round" stroke-linejoin="round"/>
  <path d="M32 36c2-8 10-16 18-18-4 6-12 14-18 18" stroke="#2C2418" stroke-width="1.5" stroke-linecap="round" stroke-linejoin="round"/>
  <path d="M24 30c-4-6-10-10-16-10 2 4 8 8 16 10" stroke="#2C2418" stroke-width="1.5" stroke-linecap="round" stroke-linejoin="round"/>
  <path d="M40 30c4-6 10-10 16-10-2 4-8 8-16 10" stroke="#2C2418" stroke-width="1.5" stroke-linecap="round" stroke-linejoin="round"/>
  <ellipse cx="32" cy="40" rx="10" ry="6" stroke="#2C2418" stroke-width="1.5" fill="none"/>
</svg>
