<svg width="64" height="64" viewBox="0 0 64 64" fill="none" xmlns="http://www.w3.org/2000/svg">
  <!-- crab -->
  <ellipse cx="32" cy="36" rx="16" ry="12" stroke="#2C2418" stroke-width="1.5" fill="none"/>
  <path d="M16 36c-4-2-8-2-8-6 4 0 6 2 8 6" stroke="#2C2418" stroke-width="1.5" stroke-linecap="round" stroke-linejoin="round"/>
  <path d="M48 36c4-2 8-2 8-6-4 0-6 2-8 6" stroke="#2C2418" stroke-width="1.5" stroke-linecap="round" stroke-linejoin="round"/>
  <path d="M16 32c-4-4-6-8-4-12 2 2 4 6 4 12" stroke="#2C2418" stroke-width="1.5" stroke-linecap="round" stroke-linejoin="round"/>
  <path d="M48 32c4-4 6-8 4-12-2 2-4 6-4 12" stroke="#2C2418" stroke-width="1.5" stroke-linecap="round" stroke-linejoin="round"/>
  <path d="M22 48c-2 4-4 6-6 6" stroke="#2C2418" stroke-width="1.5" stroke-linecap="round" stroke-linejoin="round"/>
  <path d="M42 48c2 4 4 6 6 6" stroke="#2C2418" stroke-width="1.5" stroke-linecap="round" stroke-linejoin="round"/>
  <circle cx="26" cy="30" r="2" stroke="#2C2418" stroke-width="1.5" fill="none"/>
  <circle cx="38" cy="30" r="2" stroke="#2C2418" stroke-width="1.5" fill="none"/>
</svg>
