<svg width="64" height="64" viewBox="0 0 64 64" fill="none" xmlns="http://www.w3.org/2000/svg">
  <!-- lettuce -->
  <circle cx="32" cy="34" r="16" stroke="#2C2418" stroke-width="1.5" fill="none"/>
  <path d="M16 34c0-8 6-14 16-14" stroke="#2C2418" stroke-width="1.5" stroke-linecap="round" stroke-linejoin="round"/>
  <path d="M20 26c2-4 6-8 12-8" stroke="#2C2418" stroke-width="1.5" stroke-linecap="round" stroke-linejoin="round"/>
  <path d="M16 30c-4-2-6-8-4-12 2 2 4 8 4 12" stroke="#2C2418" stroke-width="1.5" stroke-linecap="round" stroke-linejoin="round"/>
  <path d="M48 30c4-2 6-8 4-12-2 2-4 8-4 12" stroke="#2C2418" stroke-width="1.5" stroke-linecap="round" stroke-linejoin="round"/>
  <path d="M32 18c0-4 2-8 4-10 0 4-2 8-4 10" stroke="#2C2418" stroke-width="1.5" stroke-linecap="round" stroke-linejoin="round"/>
</svg>
