<svg width="64" height="64" viewBox="0 0 64 64" fill="none" xmlns="http://www.w3.org/2000/svg">
  <!-- lobster -->
  <path d="M24 48c0-8 2-16 8-22s8-10 8-10" stroke="#2C2418" stroke-width="1.5" stroke-linecap="round" stroke-linejoin="round"/>
  <path d="M40 48c0-8-2-16-8-22s-8-10-8-10" stroke="#2C2418" stroke-width="1.5" stroke-linecap="round" stroke-linejoin="round"/>
  <path d="M24 48h16" stroke="#2C2418" stroke-width="1.5" stroke-linecap="round" stroke-linejoin="round"/>
  <path d="M24 40h16" stroke="#2C2418" stroke-width="1.5" stroke-linecap="round" stroke-linejoin="round"/>
  <ellipse cx="32" cy="20" rx="8" ry="6" stroke="#2C2418" stroke-width="1.5" fill="none"/>
  <path d="M28 14c-4-4-8-6-10-4 2 2 6 4 10 4" stroke="#2C2418" stroke-width="1.5" stroke-linecap="round" stroke-linejoin="round"/>
  <path d="M36 14c4-4 8-6 10-4-2 2-6 4-10 4" stroke="#2C2418" stroke-width="1.5" stroke-linecap="round" stroke-linejoin="round"/>
  <circle cx="28" cy="18" r="2" stroke="#2C2418" stroke-width="1.5" fill="none"/>
  <circle cx="36" cy="18" r="2" stroke="#2C2418" stroke-width="1.5" fill="none"/>
</svg>
