<svg width="64" height="64" viewBox="0 0 64 64" fill="none" xmlns="http://www.w3.org/2000/svg">
  <!-- mackerel -->
  <path d="M8 32c6-10 14-14 22-12s14 8 20 12c-6 4-12 10-20 12s-16-2-22-12z" stroke="#2C2418" stroke-width="1.5" stroke-linecap="round" stroke-linejoin="round"/>
  <path d="M50 26c4 2 6 4 6 6s-2 4-6 6" stroke="#2C2418" stroke-width="1.5" stroke-linecap="round" stroke-linejoin="round"/>
  <circle cx="18" cy="30" r="3" stroke="#2C2418" stroke-width="1.5" fill="none"/>
  <path d="M26 22c2 2 2 4 2 8" stroke="#2C2418" stroke-width="1.5" stroke-linecap="round" stroke-linejoin="round"/>
  <path d="M34 20c2 2 2 6 2 10" stroke="#2C2418" stroke-width="1.5" stroke-linecap="round" stroke-linejoin="round"/>
  <path d="M26 30c2 2 2 4 2 8" stroke="#2C2418" stroke-width="1.5" stroke-linecap="round" stroke-linejoin="round"/>
  <path d="M34 30c2 2 2 4 2 8" stroke="#2C2418" stroke-width="1.5" stroke-linecap="round" stroke-linejoin="round"/>
</svg>
