<svg width="64" height="64" viewBox="0 0 64 64" fill="none" xmlns="http://www.w3.org/2000/svg">
  <!-- maitake -->
  <path d="M32 52V36" stroke="#2C2418" stroke-width="1.5" stroke-linecap="round" stroke-linejoin="round"/>
  <path d="M32 36c-6-2-12-8-10-16 2 4 6 12 10 16" stroke="#2C2418" stroke-width="1.5" stroke-linecap="round" stroke-linejoin="round"/>
  <path d="M32 36c6-2 12-8 10-16-2 4-6 12-10 16" stroke="#2C2418" stroke-width="1.5" stroke-linecap="round" stroke-linejoin="round"/>
  <path d="M20 38c-6-2-10-8-8-14 2 4 6 10 8 14" stroke="#2C2418" stroke-width="1.5" stroke-linecap="round" stroke-linejoin="round"/>
  <path d="M44 38c6-2 10-8 8-14-2 4-6 10-8 14" stroke="#2C2418" stroke-width="1.5" stroke-linecap="round" stroke-linejoin="round"/>
  <path d="M16 42c-4-2-8-6-6-10 2 2 4 6 6 10" stroke="#2C2418" stroke-width="1.5" stroke-linecap="round" stroke-linejoin="round"/>
  <path d="M48 42c4-2 8-6 6-10-2 2-4 6-6 10" stroke="#2C2418" stroke-width="1.5" stroke-linecap="round" stroke-linejoin="round"/>
</svg>
