<svg width="64" height="64" viewBox="0 0 64 64" fill="none" xmlns="http://www.w3.org/2000/svg">
  <!-- omega-3-fatty-acids -->
  <path d="M14 32c0-10 8-18 18-18 6 0 10 4 10 10 0 4-2 8-6 10 4 2 8 6 8 10 0 4-4 8-10 8-10 0-18-8-18-18" stroke="#2C2418" stroke-width="1.5" stroke-linecap="round" stroke-linejoin="round"/>
  <path d="M50 22v20" stroke="#2C2418" stroke-width="1.5" stroke-linecap="round" stroke-linejoin="round"/>
  <path d="M50 22c4 0 6 2 6 6" stroke="#2C2418" stroke-width="1.5" stroke-linecap="round" stroke-linejoin="round"/>
  <path d="M50 32c4 0 6 2 6 6s-2 6-6 6" stroke="#2C2418" stroke-width="1.5" stroke-linecap="round" stroke-linejoin="round"/>
</svg>
