<svg width="64" height="64" viewBox="0 0 64 64" fill="none" xmlns="http://www.w3.org/2000/svg">
  <!-- rye -->
  <path d="M32 56V14" stroke="#2C2418" stroke-width="1.5" stroke-linecap="round" stroke-linejoin="round"/>
  <path d="M32 14c-3-2-8-2-10 0" stroke="#2C2418" stroke-width="1.5" stroke-linecap="round" stroke-linejoin="round"/>
  <path d="M32 14c3-2 8-2 10 0" stroke="#2C2418" stroke-width="1.5" stroke-linecap="round" stroke-linejoin="round"/>
  <path d="M32 22c-4-2-10-2-12 0" stroke="#2C2418" stroke-width="1.5" stroke-linecap="round" stroke-linejoin="round"/>
  <path d="M32 22c4-2 10-2 12 0" stroke="#2C2418" stroke-width="1.5" stroke-linecap="round" stroke-linejoin="round"/>
  <path d="M32 30c-4-2-10-2-12 0" stroke="#2C2418" stroke-width="1.5" stroke-linecap="round" stroke-linejoin="round"/>
  <path d="M32 30c4-2 10-2 12 0" stroke="#2C2418" stroke-width="1.5" stroke-linecap="round" stroke-linejoin="round"/>
  <path d="M32 38c-3-1-8-1-10 0" stroke="#2C2418" stroke-width="1.5" stroke-linecap="round" stroke-linejoin="round"/>
  <path d="M32 38c3-1 8-1 10 0" stroke="#2C2418" stroke-width="1.5" stroke-linecap="round" stroke-linejoin="round"/>
</svg>