<svg width="64" height="64" viewBox="0 0 64 64" fill="none" xmlns="http://www.w3.org/2000/svg">
  <!-- sardines -->
  <path d="M8 24c4-6 10-8 16-6s10 6 14 6c4 0 10-4 14-6-4 2-8 8-14 8s-10-2-14-2c-4 0-10 2-16 0z" stroke="#2C2418" stroke-width="1.5" stroke-linecap="round" stroke-linejoin="round"/>
  <path d="M8 38c4-6 10-8 16-6s10 6 14 6c4 0 10-4 14-6-4 2-8 8-14 8s-10-2-14-2c-4 0-10 2-16 0z" stroke="#2C2418" stroke-width="1.5" stroke-linecap="round" stroke-linejoin="round"/>
  <circle cx="14" cy="22" r="2" stroke="#2C2418" stroke-width="1.5" fill="none"/>
  <circle cx="14" cy="36" r="2" stroke="#2C2418" stroke-width="1.5" fill="none"/>
</svg>
