<svg width="64" height="64" viewBox="0 0 64 64" fill="none" xmlns="http://www.w3.org/2000/svg">
  <!-- seaweed -->
  <path d="M20 56c0-10 4-20 0-30" stroke="#2C2418" stroke-width="1.5" stroke-linecap="round" stroke-linejoin="round"/>
  <path d="M20 26c-4-6-8-10-6-16 2 4 4 10 6 16" stroke="#2C2418" stroke-width="1.5" stroke-linecap="round" stroke-linejoin="round"/>
  <path d="M20 34c4-4 8-4 8-2" stroke="#2C2418" stroke-width="1.5" stroke-linecap="round" stroke-linejoin="round"/>
  <path d="M32 56c0-8 2-16 2-24" stroke="#2C2418" stroke-width="1.5" stroke-linecap="round" stroke-linejoin="round"/>
  <path d="M34 32c-4-6-6-12-4-18 2 4 4 12 4 18" stroke="#2C2418" stroke-width="1.5" stroke-linecap="round" stroke-linejoin="round"/>
  <path d="M34 40c4-4 8-4 10-2" stroke="#2C2418" stroke-width="1.5" stroke-linecap="round" stroke-linejoin="round"/>
  <path d="M44 56c0-10-2-20-2-28" stroke="#2C2418" stroke-width="1.5" stroke-linecap="round" stroke-linejoin="round"/>
  <path d="M42 28c4-6 8-10 10-14-2 6-6 10-10 14" stroke="#2C2418" stroke-width="1.5" stroke-linecap="round" stroke-linejoin="round"/>
</svg>
