<svg width="64" height="64" viewBox="0 0 64 64" fill="none" xmlns="http://www.w3.org/2000/svg">
  <!-- trout -->
  <path d="M8 32c6-12 16-16 24-16s14 4 20 16c-6 12-12 16-20 16s-18-4-24-16z" stroke="#2C2418" stroke-width="1.5" stroke-linecap="round" stroke-linejoin="round"/>
  <path d="M52 26c4 2 8 4 8 6s-4 4-8 6" stroke="#2C2418" stroke-width="1.5" stroke-linecap="round" stroke-linejoin="round"/>
  <circle cx="18" cy="30" r="3" stroke="#2C2418" stroke-width="1.5" fill="none"/>
  <path d="M28 18c2 2 2 6 2 10" stroke="#2C2418" stroke-width="1.5" stroke-linecap="round" stroke-linejoin="round"/>
  <path d="M28 34c2 2 2 6 2 10" stroke="#2C2418" stroke-width="1.5" stroke-linecap="round" stroke-linejoin="round"/>
  <path d="M36 16c2 2 2 8 2 12" stroke="#2C2418" stroke-width="1.5" stroke-linecap="round" stroke-linejoin="round"/>
  <path d="M36 36c2 2 2 6 2 8" stroke="#2C2418" stroke-width="1.5" stroke-linecap="round" stroke-linejoin="round"/>
</svg>
