<svg width="64" height="64" viewBox="0 0 64 64" fill="none" xmlns="http://www.w3.org/2000/svg">
  <!-- wild-edible-weeds -->
  <path d="M32 56V28" stroke="#2C2418" stroke-width="1.5" stroke-linecap="round" stroke-linejoin="round"/>
  <path d="M32 28c-6-8-14-12-20-10c6-4 14-2 20 10" stroke="#2C2418" stroke-width="1.5" stroke-linecap="round" stroke-linejoin="round"/>
  <path d="M32 34c6-8 12-14 18-12c-4-4-12-2-18 12" stroke="#2C2418" stroke-width="1.5" stroke-linecap="round" stroke-linejoin="round"/>
  <path d="M32 42c-4-4-10-8-14-6c4-2 10 0 14 6" stroke="#2C2418" stroke-width="1.5" stroke-linecap="round" stroke-linejoin="round"/>
  <path d="M32 46c4-4 8-6 12-4c-4-2-8 0-12 4" stroke="#2C2418" stroke-width="1.5" stroke-linecap="round" stroke-linejoin="round"/>
</svg>