<svg width="64" height="64" viewBox="0 0 64 64" fill="none" xmlns="http://www.w3.org/2000/svg">
  <!-- wild-rice -->
  <path d="M24 56V20" stroke="#2C2418" stroke-width="1.5" stroke-linecap="round" stroke-linejoin="round"/>
  <path d="M24 20c-6-4-12-4-12 0 4 0 10 2 12 0" stroke="#2C2418" stroke-width="1.5" stroke-linecap="round" stroke-linejoin="round"/>
  <path d="M24 20c6-4 12-4 12 0-4 0-10 2-12 0" stroke="#2C2418" stroke-width="1.5" stroke-linecap="round" stroke-linejoin="round"/>
  <path d="M24 30c-4-4-8-4-10 0 3 0 7 2 10 0" stroke="#2C2418" stroke-width="1.5" stroke-linecap="round" stroke-linejoin="round"/>
  <path d="M24 30c4-4 8-4 10 0-3 0-7 2-10 0" stroke="#2C2418" stroke-width="1.5" stroke-linecap="round" stroke-linejoin="round"/>
  <path d="M40 56V24" stroke="#2C2418" stroke-width="1.5" stroke-linecap="round" stroke-linejoin="round"/>
  <path d="M40 24c-4-4-8-4-8 0 3 0 6 2 8 0" stroke="#2C2418" stroke-width="1.5" stroke-linecap="round" stroke-linejoin="round"/>
  <path d="M40 24c4-4 8-4 8 0-3 0-6 2-8 0" stroke="#2C2418" stroke-width="1.5" stroke-linecap="round" stroke-linejoin="round"/>
  <path d="M40 34c-4-4-6-4-8 0 3 0 5 2 8 0" stroke="#2C2418" stroke-width="1.5" stroke-linecap="round" stroke-linejoin="round"/>
  <path d="M40 34c4-4 6-4 8 0-3 0-5 2-8 0" stroke="#2C2418" stroke-width="1.5" stroke-linecap="round" stroke-linejoin="round"/>
</svg>
